<!-- A sprite that contains all SVG files for lekoarts.de -->
<svg xmlns="http://www.w3.org/2000/svg" xmlns:xlink="http://www.w3.org/1999/xlink">
    <defs>
        <svg id="javascript" version="1.1" viewBox="0 0 16 16"> <path d="m2 2h12v12h-12v-12m3.1533 10.027c0.26667 0.56667 0.79333 1.0333 1.6933 1.0333 1 0 1.6867-0.53333 1.6867-1.7v-3.8533h-1.1333v3.8267c0 0.57333-0.23333 0.72-0.6 0.72-0.38667 0-0.54667-0.26667-0.72667-0.58l-0.92 0.55333m3.9867-0.12c0.33333 0.65333 1.0067 1.1533 2.06 1.1533 1.0667 0 1.8667-0.55333 1.8667-1.5733 0-0.94-0.54-1.36-1.5-1.7733l-0.28-0.12c-0.48667-0.20667-0.69333-0.34667-0.69333-0.68 0-0.27333 0.20667-0.48667 0.54-0.48667 0.32 0 0.53333 0.14 0.72667 0.48667l0.87333-0.58c-0.36667-0.64-0.88667-0.88667-1.6-0.88667-1.0067 0-1.6533 0.64-1.6533 1.4867 0 0.92 0.54 1.3533 1.3533 1.7l0.28 0.12c0.52 0.22667 0.82667 0.36667 0.82667 0.75333 0 0.32-0.3 0.55333-0.76667 0.55333-0.55333 0-0.87333-0.28667-1.1133-0.68667z" fill="#ffca28" stroke-width=".66667"/> </svg>
        <svg id="typescript" version="1.1" viewBox="0 0 16 16"> <path d="m2 2h12v12h-12v-12m7.14 9.9067c0.33333 0.65333 1.0067 1.1533 2.06 1.1533 1.0667 0 1.8667-0.55333 1.8667-1.5733 0-0.94-0.54-1.36-1.5-1.7733l-0.28-0.12c-0.48667-0.20667-0.69333-0.34667-0.69333-0.68 0-0.27333 0.20667-0.48667 0.54-0.48667 0.32 0 0.53333 0.14 0.72667 0.48667l0.87333-0.58c-0.36667-0.64-0.88667-0.88667-1.6-0.88667-1.0067 0-1.6533 0.64-1.6533 1.4867 0 0.92 0.54 1.3533 1.3533 1.7l0.28 0.12c0.52 0.22667 0.82667 0.36667 0.82667 0.75333 0 0.32-0.3 0.55333-0.76667 0.55333-0.55333 0-0.87333-0.28667-1.1133-0.68667l-0.92 0.53333m-0.47333-4.4067h-3.3333v1h1v4.8333h1.1667v-4.8333h1.1667z" fill="#0288d1" stroke-width=".66667"/> </svg>
        <svg id="jsx" viewBox="0 0 32 32"> <g> <path d="M16,12c7.44405,0,12,2.58981,12,4s-4.55595,4-12,4S4,17.41019,4,16,8.556,12,16,12m0-2C8.268,10,2,12.68629,2,16s6.268,6,14,6,14-2.68629,14-6-6.268-6-14-6Z" style="fill: #00bcd4"/> <path d="M16,14a2,2,0,1,0,2,2,2,2,0,0,0-2-2Z" style="fill: #00bcd4"/> <path d="M10.45764,5.50706C12.47472,5.50746,16.395,8.68416,19.4641,14,23.18613,20.44672,23.22125,25.68721,22,26.3923a.90009.90009,0,0,1-.45691.10064c-2.01725,0-5.93792-3.17678-9.00721-8.49294C8.81387,11.55328,8.77875,6.31279,10,5.6077a.90278.90278,0,0,1,.45766-.10064m-.00076-2A2.87113,2.87113,0,0,0,9,3.87564C6.13025,5.5325,6.93785,12.30391,10.80385,19c3.28459,5.68906,7.71948,9.49292,10.73927,9.49292A2.87033,2.87033,0,0,0,23,28.12436C25.86975,26.4675,25.06215,19.69609,21.19615,13c-3.28459-5.68906-7.71948-9.49342-10.73927-9.49292Z" style="fill: #00bcd4"/> <path d="M21.54311,5.50706A.9.9,0,0,1,22,5.6077c1.22125.70509,1.18613,5.94558-2.5359,12.3923-3.06929,5.31616-6.99,8.49294-9.00721,8.49294A.9.9,0,0,1,10,26.3923C8.77875,25.68721,8.81387,20.44672,12.5359,14c3.06929-5.31616,6.99-8.49294,9.00721-8.49294m0-2c-3.01979,0-7.45468,3.80386-10.73927,9.49292C6.93785,19.69609,6.13025,26.4675,9,28.12436a2.87033,2.87033,0,0,0,1.45688.36856c3.01979,0,7.45468-3.80386,10.73927-9.49292C25.06215,12.30391,25.86975,5.5325,23,3.87564a2.87033,2.87033,0,0,0-1.45688-.36856Z" style="fill: #00bcd4"/> </g> </svg>
        <svg id="tsx" viewBox="0 0 32 32"> <g> <path d="M16,12c7.44405,0,12,2.58981,12,4s-4.55595,4-12,4S4,17.41019,4,16,8.556,12,16,12m0-2C8.268,10,2,12.68629,2,16s6.268,6,14,6,14-2.68629,14-6-6.268-6-14-6Z" style="fill: #0288d1"/> <path d="M16,14a2,2,0,1,0,2,2,2,2,0,0,0-2-2Z" style="fill: #0288d1"/> <path d="M10.45764,5.50706C12.47472,5.50746,16.395,8.68416,19.4641,14,23.18613,20.44672,23.22125,25.68721,22,26.3923a.90009.90009,0,0,1-.45691.10064c-2.01725,0-5.93792-3.17678-9.00721-8.49294C8.81387,11.55328,8.77875,6.31279,10,5.6077a.90278.90278,0,0,1,.45766-.10064m-.00076-2A2.87113,2.87113,0,0,0,9,3.87564C6.13025,5.5325,6.93785,12.30391,10.80385,19c3.28459,5.68906,7.71948,9.49292,10.73927,9.49292A2.87033,2.87033,0,0,0,23,28.12436C25.86975,26.4675,25.06215,19.69609,21.19615,13c-3.28459-5.68906-7.71948-9.49342-10.73927-9.49292Z" style="fill: #0288d1"/> <path d="M21.54311,5.50706A.9.9,0,0,1,22,5.6077c1.22125.70509,1.18613,5.94558-2.5359,12.3923-3.06929,5.31616-6.99,8.49294-9.00721,8.49294A.9.9,0,0,1,10,26.3923C8.77875,25.68721,8.81387,20.44672,12.5359,14c3.06929-5.31616,6.99-8.49294,9.00721-8.49294m0-2c-3.01979,0-7.45468,3.80386-10.73927,9.49292C6.93785,19.69609,6.13025,26.4675,9,28.12436a2.87033,2.87033,0,0,0,1.45688.36856c3.01979,0,7.45468-3.80386,10.73927-9.49292C25.06215,12.30391,25.86975,5.5325,23,3.87564a2.87033,2.87033,0,0,0-1.45688-.36856Z" style="fill: #0288d1"/> </g> </svg>
        <svg id="md" viewBox="0 0 32 32"> <g> <polygon points="14 10 10 13.5 6 10 4 10 4 22 8 22 8 16 10 18 12 16 12 22 16 22 16 10 14 10" style="fill: #42a5f5"/> <polygon points="26 16 26 10 22 10 22 16 18 16 24 24 30 16 26 16" style="fill: #42a5f5"/> </g> </svg>
        <svg id="mdx" viewBox="0 0 32 32"> <g> <polygon points="14 10 10 13.5 6 10 4 10 4 22 8 22 8 16 10 18 12 16 12 22 16 22 16 10 14 10" style="fill: #ffca28"/> <polygon points="26 16 26 10 22 10 22 16 18 16 24 24 30 16 26 16" style="fill: #ffca28"/> </g> </svg>
        <svg id="html" viewBox="0 0 32 32"> <path d="M4,4,6,26l10,2,10-2L28,4Zm19.72,7H11.28l.29,3H23.43l-.80243,9.335L15.99,25,9.35522,23.3537,8.93,19h3.02l.19,2,3.86.77L19.84,21l.29-4H8.84L8,8H24Z" style="fill: #e44d26"/> </svg>
        <svg id="kotlin" viewBox="0 0 24 24"><defs><linearGradient id="a" x1="1.725" x2="22.185" y1="22.67" y2="1.982" gradientTransform="translate(1.306 1.129) scale(.89324)" gradientUnits="userSpaceOnUse"><stop stop-color="#0296d8" offset="0"/><stop stop-color="#8371d9" offset="1"/></linearGradient><linearGradient id="b" x1="1.869" x2="22.798" y1="22.382" y2="3.377" gradientTransform="translate(1.323 1.129) scale(.89324)" gradientUnits="userSpaceOnUse"><stop stop-color="#cb55c0" offset="0"/><stop stop-color="#f28e0e" offset="1"/></linearGradient></defs><path d="M2.975 2.976v18.048h18.05v-.03l-4.478-4.511-4.48-4.515 4.48-4.515 4.443-4.477z" fill="url(#a)"/><path d="m12.223 2.976-9.23 9.23v8.818h.083l9.032-9.032-.024-.024 4.48-4.515 4.443-4.477h-8.784z" fill="url(#b)"/></svg>
        <svg id="swift" viewBox="0 0 24 24"><path d="M17.087 19.721c-2.36 1.36-5.59 1.5-8.86.1a13.807 13.807 0 0 1-6.23-5.32c.67.55 1.46 1 2.3 1.4 3.37 1.57 6.73 1.46 9.1 0-3.37-2.59-6.24-5.96-8.37-8.71-.45-.45-.78-1.01-1.12-1.51 8.28 6.05 7.92 7.59 2.41-1.01 4.89 4.94 9.43 7.74 9.43 7.74.16.09.25.16.36.22.1-.25.19-.51.26-.78.79-2.85-.11-6.12-2.08-8.81 4.55 2.75 7.25 7.91 6.12 12.24-.03.11-.06.22-.05.39 2.24 2.83 1.64 5.78 1.35 5.22-1.21-2.39-3.48-1.65-4.62-1.17z" style="fill:#fe5e2f"/></svg>
        <svg id="rust" viewBox="0 0 32 32"><path d="M24,20a2.00591,2.00591,0,0,1-2-2,2,2,0,0,0-2-2,3.00017,3.00017,0,0,0,2.99579-3.16132A3.11454,3.11454,0,0,0,19.83026,10H4v2h6v8H4v2H16V20H14V18h4c.81885.81885.29669,2.30811,1.17865,3.36987A1.88526,1.88526,0,0,0,20.63879,22H28V20Zm-6-6H14V12h4a1,1,0,0,1,0,2Z" style="fill:#ff7043"/><path d="M16.01108,3.77914A12.22061,12.22061,0,1,1,5.88381,9.14562,12.16113,12.16113,0,0,1,16.01108,3.77914m.00057-1h0A13.22132,13.22132,0,1,0,23.41531,5.056,13.21772,13.21772,0,0,0,16.0116,2.77914Z" style="fill:#ff7043"/><polygon points="25.139 2.512 20.897 3.327 20.325 4.17 25.383 7.597 25.955 6.754 25.139 2.512" style="fill:#ff7043"/><polygon points="19.282 0.041 15.674 2.418 15.469 3.415 21.454 4.646 21.659 3.649 19.282 0.041" style="fill:#ff7043"/><polygon points="12.925 0 10.501 3.577 10.694 4.577 16.694 3.423 16.501 2.423 12.925 0" style="fill:#ff7043"/><polygon points="7.036 2.395 6.166 6.627 6.726 7.477 11.828 4.115 11.268 3.265 7.036 2.395" style="fill:#ff7043"/><polygon points="2.512 6.861 3.327 11.103 4.17 11.675 7.597 6.617 6.754 6.045 2.512 6.861" style="fill:#ff7043"/><polygon points="0.041 12.718 2.418 16.326 3.415 16.531 4.646 10.546 3.649 10.341 0.041 12.718" style="fill:#ff7043"/><polygon points="0 19.075 3.577 21.499 4.577 21.306 3.423 15.306 2.423 15.499 0 19.075" style="fill:#ff7043"/><polygon points="2.395 24.964 6.627 25.834 7.477 25.274 4.115 20.172 3.265 20.732 2.395 24.964" style="fill:#ff7043"/><polygon points="6.861 29.488 11.103 28.673 11.675 27.83 6.617 24.403 6.045 25.246 6.861 29.488" style="fill:#ff7043"/><polygon points="12.718 31.959 16.326 29.582 16.531 28.585 10.546 27.354 10.341 28.351 12.718 31.959" style="fill:#ff7043"/><polygon points="19.075 32 21.499 28.423 21.306 27.423 15.306 28.577 15.499 29.577 19.075 32" style="fill:#ff7043"/><polygon points="24.964 29.605 25.834 25.373 25.274 24.523 20.172 27.885 20.732 28.735 24.964 29.605" style="fill:#ff7043"/><polygon points="29.488 25.139 28.673 20.897 27.83 20.325 24.403 25.383 25.246 25.955 29.488 25.139" style="fill:#ff7043"/><polygon points="32 12.925 28.423 10.501 27.423 10.694 28.577 16.694 29.577 16.501 32 12.925" style="fill:#ff7043"/><polygon points="29.605 7.036 25.373 6.166 24.523 6.726 27.885 11.828 28.735 11.268 29.605 7.036" style="fill:#ff7043"/><polygon points="31.959 19.282 29.582 15.674 28.585 15.469 27.354 21.454 28.351 21.659 31.959 19.282" style="fill:#ff7043"/></svg>
        <svg id="go" viewBox="0 0 32 32"><rect x="2" y="12" width="4" height="2" style="fill:#00acc1"/><rect y="16" width="6" height="2" style="fill:#00acc1"/><rect x="4" y="20" width="2" height="2" style="fill:#00acc1"/><path d="M20.9541,15H14v3H17.239a4.41613,4.41613,0,0,1-3.531,2,2.64933,2.64933,0,0,1-2.05329-.85828,2.85507,2.85507,0,0,1-.62756-2.27887A4.51451,4.51451,0,0,1,15.29205,13a2.72468,2.72468,0,0,1,1.74872.58368L20.0025,12.399A5.60478,5.60478,0,0,0,15.29205,10a7.52569,7.52569,0,0,0-7.24292,6.5A5.61427,5.61427,0,0,0,13.708,23a7.52569,7.52569,0,0,0,7.24292-6.5A6.40392,6.40392,0,0,0,20.9541,15Z" style="fill:#00acc1"/><path d="M26.29205,10a7.52569,7.52569,0,0,0-7.24292,6.5A5.61427,5.61427,0,0,0,24.708,23a7.5258,7.5258,0,0,0,7.243-6.5A5.61428,5.61428,0,0,0,26.29205,10ZM28.973,16.13708A4.51463,4.51463,0,0,1,24.708,20a2.64906,2.64906,0,0,1-2.05323-.85822,2.85508,2.85508,0,0,1-.62762-2.27893A4.51451,4.51451,0,0,1,26.29205,13a2.64919,2.64919,0,0,1,2.05329.85822A2.855,2.855,0,0,1,28.973,16.13708Z" style="fill:#00acc1"/></svg>
        <svg id="java" viewBox="0 0 32 32"> <g> <rect x="4" y="26" width="24" height="2" style="fill: #f44336"/> <path d="M28,4H7A1,1,0,0,0,6,5V18a4,4,0,0,0,4,4H20a4,4,0,0,0,4-4V14h4a2,2,0,0,0,2-2V6A2,2,0,0,0,28,4Zm0,8H24V6h4Z" style="fill: #f44336"/> </g> </svg>
        <svg id="powershell" viewBox="0 0 32 32"> <path d="M29.06952,6H7.67657A1.53492,1.53492,0,0,0,6.24036,7.11292L2.03979,24.88708A.85158.85158,0,0,0,2.92963,26H24.32251a1.535,1.535,0,0,0,1.43628-1.11292L29.96063,7.11163A.85178.85178,0,0,0,29.06952,6ZM8.62573,23.7973a1.402,1.402,0,0,1-1.814-.31006l-.007-.00879a1.07544,1.07544,0,0,1,.31567-1.59924l9.5987-6.06134-6.10077-5.852-.01062-.01031A1.06843,1.06843,0,0,1,10.6922,8.3313l.0365-.03119a1.38027,1.38027,0,0,1,1.80115.07092l7.23223,6.95673a1.10816,1.10816,0,0,1,.23639.73913,1.07453,1.07453,0,0,1-.41217.79078c-.07385.03973-.14624.11792-10.95178,6.9342ZM24,22.93982A1.1351,1.1351,0,0,1,22.80273,24H17.169a1.06133,1.06133,0,1,1,.0014-2.11157h5.63238A1.134,1.134,0,0,1,24,22.93854Z" style="fill: #03a9f4"/> </svg>
        <svg id="css" viewBox="0 0 32 32"> <polygon points="29.18 4 25.61 22.36 25.28 24 20.54 25.57 17.26 26.66 13.21 28 2.87 24.05 4.05 18 8.25 18 7.81 20.85 14.15 23.27 14.93 23.01 21.45 20.85 21.62 20.02 22.41 16 4.44 16 5.18 12.24 5.23 12 23.19 12 23.97 8 6 8 6.78 4 29.18 4" style="fill: #42a5f5"/> </svg>
        <svg id="less" version="1.1" viewBox="0 0 24 24"> <path d="m8 3a2 2 0 0 0-2 2v4a2 2 0 0 1-2 2h-1v2h1a2 2 0 0 1 2 2v4a2 2 0 0 0 2 2h2v-2h-2v-5a2 2 0 0 0-2-2 2 2 0 0 0 2-2v-5h2v-2m6 0a2 2 0 0 1 2 2v4a2 2 0 0 0 2 2h1v2h-1a2 2 0 0 0-2 2v4a2 2 0 0 1-2 2h-2v-2h2v-5a2 2 0 0 1 2-2 2 2 0 0 1-2-2v-5h-2v-2h2z" fill="#0277bd"/> </svg>
        <svg id="sass" viewBox="0 0 32 32"> <path d="M27.83653,5.67329A4.32575,4.32575,0,0,0,25.54386,2.972c-2.36209-1.26119-6.11054-1.29834-9.5476-.09239A26.33875,26.33875,0,0,0,7.23619,7.84615c-2.75267,2.54143-3.438,4.925-3.18872,6.1935.52208,2.668,3.27378,4.53929,5.48482,6.04244.418.284.82126.55874,1.17469.81635-1.42889.75916-4.26125,2.44318-5.08837,4.24795a3.88406,3.88406,0,0,0-.11781,3.33139,2.36531,2.36531,0,0,0,1.36778,1.3218A5.60231,5.60231,0,0,0,8.35907,30a6.34583,6.34583,0,0,0,5.19-2.85624,6.73483,6.73483,0,0,0,.86379-5.382,7.31511,7.31511,0,0,1,2.04385-.02884A3.916,3.916,0,0,1,19.273,23.04344a1.823,1.823,0,0,1,.42334,1.26118,1.55091,1.55091,0,0,1-.77238,1.04952c-.23366.14176-.58563.35587-.5035.80413.03519.19358.19749.63255.8936.51132a2.93172,2.93172,0,0,0,2.14505-2.65093A3.99258,3.99258,0,0,0,20.2624,21.115a5.941,5.941,0,0,0-4.39666-1.62586,10.55222,10.55222,0,0,0-2.67153.30357A19.69775,19.69775,0,0,0,10.991,17.94737c-1.71242-1.30079-3.33049-2.52922-3.23517-4.25968.12564-2.26378,2.46866-4.53294,6.96406-6.74441,4.01634-1.97586,7.25444-2.03745,8.94388-1.43864a2.01272,2.01272,0,0,1,1.20451.88332,2.76585,2.76585,0,0,1-.36077,2.46958A9.71389,9.71389,0,0,1,17.083,13.16219a3.86349,3.86349,0,0,1-3.2381-.7572c-.27815-.30161-.593-.64477-1.074-.38324-.37544.20677-.45218.60371-.22487,1.18884a3.89369,3.89369,0,0,0,2.40657,1.92013,11.71029,11.71029,0,0,0,7.12831-.67117C25.60839,13.11087,28.7624,9.25789,27.83653,5.67329ZM11.89487,24.47522a3.896,3.896,0,0,1-.19163.46782,4.51367,4.51367,0,0,1-.75282,1.08129,2.83129,2.83129,0,0,1-2.53367,1.10672c-.05573-.03227-.07773-.14568-.08457-.19309a3.28033,3.28033,0,0,1,1.07594-2.28382,11.29746,11.29746,0,0,1,2.64367-1.93284A3.8528,3.8528,0,0,1,11.89487,24.47522Z" style="fill: #ec407a"/> </svg>
        <svg id="json" width="24" height="24" version="1.1" viewBox="0 -960 960 960"> <path d="M560-160v-80h120q17 0 28.5-11.5T720-280v-80q0-38 22-69t58-44v-14q-36-13-58-44t-22-69v-80q0-17-11.5-28.5T680-720H560v-80h120q50 0 85 35t35 85v80q0 17 11.5 28.5T840-560h40v160h-40q-17 0-28.5 11.5T800-360v80q0 50-35 85t-85 35H560Zm-280 0q-50 0-85-35t-35-85v-80q0-17-11.5-28.5T120-400H80v-160h40q17 0 28.5-11.5T160-600v-80q0-50 35-85t85-35h120v80H280q-17 0-28.5 11.5T240-680v80q0 38-22 69t-58 44v14q36 13 58 44t22 69v80q0 17 11.5 28.5T280-240h120v80H280Z" fill="#f9a825"/> </svg>
        <svg id="nginx" viewBox="0 0 32 32"> <path d="M16,0,2,8V24l14,8,14-8V8Zm8,23a1,1,0,0,1-1,1H20.48065a.99983.99983,0,0,1-.78088-.37531L12,14v9a1,1,0,0,1-1,1H9a1,1,0,0,1-1-1V9A1,1,0,0,1,9,8h2.51935a.99983.99983,0,0,1,.78088.37531L20,18V9a1,1,0,0,1,1-1h2a1,1,0,0,1,1,1Z" style="fill: #43a047"/> </svg>
        <svg id="typescript-def" width="16" height="16" version="1.1" viewBox="0 0 16 16"> <g transform="scale(.66667)" fill="#0288d1"> <path d="m3 3v18h18v-18zm1 1h16v16h-16z"/> <path d="m15.988 10.311c-1.51 0-2.4785 0.96047-2.4785 2.2305 0 1.38 0.8093 2.0288 2.0293 2.5488l0.41992 0.18164c0.78 0.34 1.2402 0.54891 1.2402 1.1289 0 0.48-0.45039 0.83008-1.1504 0.83008-0.83 0-1.3099-0.4293-1.6699-1.0293l-1.3789 0.79883c0.5 0.98 1.5098 1.7305 3.0898 1.7305 1.6 0 2.7988-0.82938 2.7988-2.3594 0-1.41-0.81-2.0402-2.25-2.6602l-0.41992-0.17969c-0.73-0.31-1.0391-0.52149-1.0391-1.0215 0-0.41 0.30859-0.72852 0.80859-0.72852 0.48 0 0.79984 0.20852 1.0898 0.72852l1.3105-0.86914c-0.55-0.96-1.3304-1.3301-2.4004-1.3301zm-8.6992 0.08008v1.5h1.5v7.25h1.75v-7.25h1.75v-1.5z"/> </g> </svg>
        <svg id="objective-c" viewBox="0 0 32 32"> <path d="M20,24A8,8,0,1,1,20,8h6V2H20A14,14,0,0,0,6,15.99994V16A14,14,0,0,0,20,30h6V24Z" style="fill: #ffab40"/> </svg>
        <svg id="c" viewBox="0 0 32 32"> <path d="M20,24A8,8,0,1,1,20,8h6V2H20A14,14,0,0,0,6,15.99994V16A14,14,0,0,0,20,30h6V24Z" style="fill: #0288d1"/> </svg>
        <svg id="cpp" viewBox="0 0 32 32"> <path d="M32,18H28v4H24V18H22V14h2V10h4v4h4ZM20,10v4h2v4H20v4H16V18H12V14h4V10Z" style="fill: #0288d1"/> <path d="M14,24A8,8,0,1,1,14,8h6V2H14A14,14,0,0,0,0,15.99994V16A14,14,0,0,0,14,30h6V24Z" style="fill: #0288d1"/> </svg>
        <svg id="ruby" viewBox="0 0 24 24"><path d="M18.041 3.177c2.24.382 2.879 1.919 2.843 3.527V6.67l-1.013 13.266-13.132.897h.008c-1.093-.044-3.518-.151-3.634-3.545l1.217-2.222 2.462 5.74 2.097-6.77-.045.009.018-.018 6.85 2.186L13.945 9.3l6.53-.409-5.144-4.212 2.71-1.51v.009M3.113 17.252v.017-.017M6.916 6.874c2.63-2.622 6.033-4.168 7.34-2.844 1.297 1.306-.072 4.523-2.702 7.135-2.666 2.613-6.015 4.248-7.322 2.933-1.306-1.324.036-4.612 2.675-7.224z" style="fill:#f44336;stroke-width:.88855"/></svg>
        <svg id="gear" width="24" height="24" viewBox="0 0 24 24" fill="none"> <path d="M5.93871 5.3696C6.53094 7.4206 5.29981 9.55287 3.22737 10.0657L2.1283 10.3376C2.04383 10.8788 2 11.4342 2 12.0001C2 12.5921 2.04797 13.1725 2.14034 13.7373L3.15512 13.9817C5.24827 14.4859 6.49237 16.64 5.88302 18.7047L5.53253 19.8924C6.3588 20.6178 7.30021 21.207 8.32477 21.626L9.25282 20.6501C10.7362 19.0902 13.2239 19.0905 14.7069 20.6511L15.6451 21.6384C16.6676 21.2239 17.6083 20.6404 18.4347 19.921L18.0622 18.6306C17.47 16.5794 18.7011 14.4471 20.7736 13.9344L21.8717 13.6626C21.9562 13.1213 22 12.566 22 12.0001C22 11.408 21.952 10.8275 21.8597 10.2625L20.8456 10.0183C18.7527 9.51431 17.5086 7.36021 18.1179 5.29529L18.468 4.10856C17.6419 3.38275 16.7004 2.79352 15.6758 2.37436L14.7481 3.34982C13.2647 4.90999 10.7771 4.90943 9.29402 3.34888L8.35562 2.36157C7.33313 2.77584 6.39248 3.35923 5.56602 4.07864L5.93871 5.3696ZM12.0001 14.822C10.4937 14.822 9.27276 13.5586 9.27276 12.0001C9.27276 10.4416 10.4937 9.17812 12.0001 9.17812C13.5063 9.17812 14.7272 10.4416 14.7272 12.0001C14.7272 13.5586 13.5063 14.822 12.0001 14.822Z" fill="#64748B"/> </svg>

        <svg id="vue" viewBox="0 0 24 24"><path d="M1.791 3.691 12 21.311 22.209 3.776V3.69H18.24l-6.18 10.616L5.906 3.691z" style="fill:#41b883" transform="translate(0 .16)"/><path d="m5.907 3.691 6.152 10.617L18.24 3.691h-3.723L12.084 7.87 9.66 3.69z" style="fill:#35495e" transform="translate(0 .16)"/></svg>
        <svg id="angular" version="1.1" viewBox="0 0 24 24" xml:space="preserve"><path d="m9.8691 2.5-6.8457 3.166 0.64453 10.178zm4.2617 0 6.2012 13.344 0.64453-10.178zm-2.1309 5.0625-2.4512 5.9648h4.9062zm-3.7305 8.959-0.95312 2.3086 4.6836 2.6699 4.6836-2.6699-0.95312-2.3086z" fill="#e53935"/></svg>
        <svg id="svelte" viewBox="0 0 300 300"><path d="M175.94 24.328c-13.037.252-26.009 3.872-37.471 11.174L79.912 72.818a67.134 67.134 0 0 0-30.355 44.906 70.794 70.794 0 0 0 6.959 45.445 67.224 67.224 0 0 0-10.035 25.102 71.535 71.535 0 0 0 12.236 54.156c23.351 33.41 69.468 43.311 102.81 22.07l58.559-37.158a67.359 67.359 0 0 0 30.355-44.906 70.771 70.771 0 0 0-6.982-45.422 67.65 67.65 0 0 0 10.059-25.102 71.625 71.625 0 0 0-12.236-54.156v-.18c-15.324-21.925-40.453-33.727-65.342-33.246zm5.137 28.68a46.5 46.5 0 0 1 36.09 19.969 42.975 42.975 0 0 1 7.365 32.557 45.242 45.242 0 0 1-1.393 5.455l-1.123 3.37-2.986-2.247a75.846 75.846 0 0 0-22.902-11.45l-2.244-.651.201-2.246a13.157 13.157 0 0 0-2.379-8.711 13.988 13.988 0 0 0-14.953-5.412 12.843 12.843 0 0 0-3.594 1.572l-58.578 37.25a12.237 12.237 0 0 0-5.502 8.15 13.112 13.112 0 0 0 2.246 9.834 14.033 14.033 0 0 0 14.93 5.569 13.472 13.472 0 0 0 3.594-1.573l22.453-14.234a41.785 41.785 0 0 1 11.898-5.232 46.477 46.477 0 0 1 49.914 18.502 43.02 43.02 0 0 1 7.363 32.557 40.415 40.415 0 0 1-18.254 27.078l-58.58 37.316a43.065 43.065 0 0 1-11.898 5.23A46.545 46.545 0 0 1 82.81 227.14a42.975 42.975 0 0 1-7.341-32.557 38.17 38.17 0 0 1 1.39-5.41l1.102-3.37 3.008 2.246a75.846 75.846 0 0 0 22.836 11.361l2.244.65-.201 2.247a13.247 13.247 0 0 0 2.447 8.644 14.033 14.033 0 0 0 15.043 5.569 13.135 13.135 0 0 0 3.592-1.573l58.467-37.316a12.169 12.169 0 0 0 5.502-8.173 12.955 12.955 0 0 0-2.246-9.811 14.033 14.033 0 0 0-15.043-5.568 12.843 12.843 0 0 0-3.592 1.57l-22.453 14.258a42.885 42.885 0 0 1-11.877 5.209 46.522 46.522 0 0 1-49.846-18.5 43.02 43.02 0 0 1-7.297-32.557A40.415 40.415 0 0 1 96.798 96.98l58.646-37.316a42.773 42.773 0 0 1 11.811-5.21 46.5 46.5 0 0 1 13.822-1.444z" style="fill:#ff5722;stroke-width:2.2453"/></svg>
        <svg id="git" viewBox="0 0 32 32"> <path d="M13.17157,2.82843,11.78,4.22l1.91,1.91,2,2A2.98634,2.98634,0,0,1,20,10.81a3.24762,3.24762,0,0,1-.31,1.31l2.06,2a2.68305,2.68305,0,0,1,3.37.57A2.86047,2.86047,0,0,1,26,16.80725a3.01491,3.01491,0,0,1-.856,2.10855A2.89268,2.89268,0,0,1,23,19.81a2.92912,2.92912,0,0,1-2.13-.87,2.69441,2.69441,0,0,1-.56-3.38l-2-2.06a2.54662,2.54662,0,0,1-.31.12V20a3.02384,3.02384,0,0,1,1.44,1.09A2.92105,2.92105,0,0,1,20,22.81a2.88288,2.88288,0,0,1-.878,2.128,2.98224,2.98224,0,0,1-2.04815.87125A2.98125,2.98125,0,0,1,14.56,21.09,3.02384,3.02384,0,0,1,16,20V13.62a2.9626,2.9626,0,0,1-1.44-1.09A2.89859,2.89859,0,0,1,14,10.81a2.86805,2.86805,0,0,1,.31-1.31l-3.9-3.9L2.83113,13.17157a4,4,0,0,0-.00135,5.65821L13.17157,29.17157a4,4,0,0,0,5.65686,0L29.17157,18.82843a4,4,0,0,0,0-5.65686L18.82843,2.82843A4,4,0,0,0,13.17157,2.82843Z" style="fill: #e64a19"/> </svg>
        <svg id="gitlab" viewBox="0 0 32 32"> <g> <path d="M29.53247,13.083l-.03772-.10459L25.684,2.656a1.01869,1.01869,0,0,0-.39192-.49091.9846.9846,0,0,0-1.39045.31685,1.06547,1.06547,0,0,0-.1212.28048L21.20823,10H10.79184L8.21963,2.76238A1.00388,1.00388,0,0,0,6.97424,2.041a.99039.99039,0,0,0-.26627.12408,1.01869,1.01869,0,0,0-.39184.49091L2.50722,12.98035l-.03955.10268a7.51889,7.51889,0,0,0,2.34754,8.49133l.0144.0113.03235.02611,5.79688,4.51172,2.876,2.25671,1.7472,1.372a1.14621,1.14621,0,0,0,1.42358,0l1.7472-1.37194,2.876-2.25685,5.8382-4.53783.01618-.01306a7.51882,7.51882,0,0,0,2.34931-8.4895Z" style="fill: #e53935"/> <path d="M29.53247,13.083l-.03772-.10459a12.62931,12.62931,0,0,0-5.12287,2.39313l-8.36733,6.57055,5.32777,4.1813,5.83827-4.53783.01617-.01306a7.519,7.519,0,0,0,2.34571-8.48943Z" style="fill: #ef6c00"/> <path d="M10.65884,26.12342l2.876,2.25678,1.7472,1.372a1.14621,1.14621,0,0,0,1.42358,0l1.7472-1.37194,2.876-2.25685L16.001,21.94212Z" style="fill: #f9a825"/> <path d="M7.62826,15.3715a12.61844,12.61844,0,0,0-5.121-2.39115l-.03955.10268a7.51889,7.51889,0,0,0,2.34754,8.49133l.0144.01129.03235.02612,5.79688,4.51172,5.3313-4.18137Z" style="fill: #ef6c00"/> </g> </svg>
        <svg id="npm" viewBox="0 0 32 32"> <path d="M4,4V28H28V4ZM24,24H20V12H16V24H8V8H24Z" style="fill: #cb3837"/> </svg>
        <svg id="pnpm" viewBox="0 0 32 32"> <g> <rect x="2" y="22" width="8" height="8" style="fill: #e0e0e0"/> <rect x="12" y="22" width="8" height="8" style="fill: #e0e0e0"/> <rect x="22" y="22" width="8" height="8" style="fill: #e0e0e0"/> <rect x="12" y="12" width="8" height="8" style="fill: #e0e0e0"/> </g> <g> <rect x="2" y="2" width="8" height="8" style="fill: #ffb300"/> <rect x="12" y="2" width="8" height="8" style="fill: #ffb300"/> <rect x="22" y="2" width="8" height="8" style="fill: #ffb300"/> <rect x="22" y="12" width="8" height="8" style="fill: #ffb300"/> </g> </svg>
        <svg id="yarn" viewBox="0 0 32 32"> <path d="M27.57471,23.96726a9.94144,9.94144,0,0,0-3.75095,1.7259,22.63036,22.63036,0,0,1-5.53666,2.5035,1.54615,1.54615,0,0,1-.93131.52116,58.93483,58.93483,0,0,1-6.10913.54687c-1.10223.0085-1.77721-.28193-1.96524-.73489a1.4901,1.4901,0,0,1,.8203-1.965,3.56714,3.56714,0,0,1-.487-.35884c-.16232-.16231-.33324-.48706-.38455-.36745-.21352.52116-.32464,1.79432-.8971,2.3669-.7861.79449-2.27278.52965-3.15278.0683-.96551-.51266.06842-1.7174.06842-1.7174a.692.692,0,0,1-.93992-.32475,4.59176,4.59176,0,0,1-.63228-2.79393,5.18259,5.18259,0,0,1,1.67471-2.75972,8.8429,8.8429,0,0,1,.62378-4.1696,9.89616,9.89616,0,0,1,2.99906-3.46891s-1.837-2.02483-1.15344-3.862c.44425-1.19614.62367-1.18764.76889-1.23895a3.44089,3.44089,0,0,0,1.37567-.8117,4.98824,4.98824,0,0,1,4.17809-1.60629s1.09374-3.35779,2.119-2.69992a17.38786,17.38786,0,0,1,1.45246,2.73413s1.21324-.70919,1.35-.44425a10.73762,10.73762,0,0,1,.49556,5.8101A13.27426,13.27426,0,0,1,17.09957,16.047c-.12811.21362,1.46957.8886,2.47779,3.68253.93131,2.55471.10262,4.69937.24784,4.9386.0256.0427.0342.05981.0342.05981s1.068.0854,3.21258-1.239a8.0501,8.0501,0,0,1,4.05-1.52088,1.02576,1.02576,0,0,1,.45286,1.99934Z" style="fill: #0288d1"/> </svg>
        <svg id="webpack" viewBox="0 0 24 24"><path d="m19.376 15.988-7.708 4.45-7.709-4.45v-8.9l7.709-4.451 7.708 4.45z" fill="#fff" fill-opacity=".785"/><path d="M12.286 1.98c-.21 0-.41.059-.57.179l-7.9 4.44c-.32.17-.53.5-.53.88v9c0 .38.21.711.53.881l7.9 4.44c.16.12.36.18.57.18s.41-.06.57-.18l7.9-4.44c.32-.17.53-.5.53-.88v-9c0-.38-.21-.712-.53-.882l-7.9-4.44a.945.945 0 0 0-.57-.179zm0 2.15 7 3.94v2.103h-.016v5.177h.016v.54l-7 3.939-7-3.94V8.07l7-3.94zm0 2.08-4.9 2.83 4.9 2.83 4.9-2.83-4.9-2.83zm-5 5.08v3.58l4 2.309v-3.58l-4-2.31zm10 0-4 2.308v3.58l4-2.308v-3.58z" fill="#8ed6fb"/><path d="m12.286 6.21-4.9 2.83 4.9 2.83 4.9-2.83-4.9-2.83zm-5 5.08v3.58l4 2.309v-3.58l-4-2.31zm10 0-4 2.308v3.58l4-2.308v-3.58z" fill="#1c78c0"/></svg>
        <svg id="vite" viewBox="0 0 32 32"> <path d="M10,2V18h4V30l9-16H17L22,2Z" style="fill: #ffab00"/> </svg>
        <svg id="vitest" viewBox="0 0 32 32"> <path d="M16.09445,30.07392a1.41432,1.41432,0,0,1-1.00352-.41561L8.46867,23.03645a1.41906,1.41906,0,0,1,2.00681-2.00689l5.619,5.61842L28.33555,14.4075a1.419,1.419,0,0,1,2.00669,2.00679L17.09773,29.65841a1.414,1.414,0,0,1-1.00327.41561Z" style="fill: #689f38"/> <path d="M16.08863,30.07392a1.41437,1.41437,0,0,0,1.00352-.41561l6.62226-6.62186a1.41909,1.41909,0,0,0-2.00689-2.00689l-5.619,5.61842L3.84745,14.4075a1.41907,1.41907,0,0,0-2.00681,2.00679l13.2447,13.24412a1.414,1.414,0,0,0,1.00329.41561Z" style="fill: #689f38;fill-opacity: 0.5019599795341492"/> <polygon points="24 10 18 10 18 2 10 14 16 14 16 22 24 10" style="fill: #ffca28"/> </svg>
        <svg id="babel" viewBox="0 0 24 24"><path d="M18.23 11.21c-.03-.16-.47-.71-1.32-1.65-.02-.19.29-.45.9-.8l1.74-1.55c.39-.5.62-1.28.69-2.38l-.02-.26c-.07-.78-.63-1.4-1.69-1.89-.63-.42-1.76-.65-3.38-.68-1.35.11-3.11.59-5.28 1.43-.6.43-1.28.86-2.04 1.28l.01.14.21-.08c.08-.01.13.03.14.11l.13-.07.07-.01.01.06c0 .07-.47.44-1.76 1.35l-.06.12c-.31.02-.61.25-.91.67l.08.12.25-.09.18.24c.32-.33.66-.62 1.03-.87.19.05.29.11.44.16 1.02-.75 2.03-1.3 3.04-1.64l.01.14c-.2.27-.32.42-.38.42l.1.23c.01.19-2.55 7-6.66 14.44l.08.19c.35-.08.58-.17.75-.26l.01.13.4-.03-.67 1.76.14.06c.57-.64 1-1.29 1.3-1.88 1.67-.49 2.94-.97 3.82-1.44.88-.08 1.56-.31 2.02-.7l.92-.47c1.27-.98 2.22-1.67 2.87-2.08 1.33-.98 2.2-1.93 2.6-2.85l.23-1.37m-3.46 2.31L13 14.91c-1.29.85-2 1.3-2.09 1.3-2.07 1.13-3.36 1.72-3.86 1.76l-.05.01c.04-.23.96-2.12 2.75-5.67.78-.06 2.02-.43 3.71-1.1l.41-.03c.85-.08 1.49.09 1.91.49l.03.26c-.31.9-.67 1.44-1.04 1.59m1.09-5.78c-.18.22-.68.59-1.5 1.11-.27.03-1.27.42-3.01 1.18l-.28-.05-.01-.12c-.02-.25.09-.57.34-.95.13-.7.28-1.12.44-1.2l1.45-3.28c-.02-.22.29-.35.93-.46l.21-.02.01.18 1.16-.16c1.15-.1 1.75.14 1.8.7l.13-.02-.03-.32.15-.02c.35.19.52.4.54.68.02.18-.08.41-.29.68-.09.01-.14-.06-.15-.18l-.14.01-.03.4c-.58.87-1.01 1.31-1.27 1.34z" style="fill:#fdd835"/></svg>
        <svg id="prettier" viewBox="0 0 210 210"><g transform="matrix(.9 0 0 .9 10.5 10.5)" fill="none" fill-rule="evenodd"><rect x="165" y="40" width="20" height="10" rx="5" fill="#56B3B4"/><rect x="15" y="200" width="60" height="10" rx="5" fill="#EA5E5E"/><rect x="135" y="120" width="40" height="10" rx="5" fill="#BF85BF"/><rect x="75" y="120" width="50" height="10" rx="5" fill="#EA5E5E"/><rect x="15" y="120" width="50" height="10" rx="5" fill="#56B3B4"/><rect x="15" y="160" width="60" height="10" rx="5" fill="#BF85BF"/><rect x="15" y="80" width="60" height="10" rx="5" fill="#BF85BF"/><rect x="65" y="20" width="110" height="10" rx="5" fill="#F7BA3E"/><rect x="15" y="20" width="40" height="10" rx="5" fill="#EA5E5E"/><rect x="55" y="180" width="20" height="10" rx="5" fill="#F7BA3E"/><rect x="55" y="60" width="20" height="10" rx="5" fill="#56B3B4"/><rect x="15" y="180" width="30" height="10" rx="5" fill="#56B3B4"/><rect x="15" y="60" width="30" height="10" rx="5" fill="#F7BA3E"/><rect x="95" y="100" width="90" height="10" rx="5" fill="#56B3B4"/><rect x="45" y="100" width="40" height="10" rx="5" fill="#F7BA3E"/><rect x="15" y="100" width="20" height="10" rx="5" fill="#EA5E5E"/><rect x="105" y="40" width="50" height="10" rx="5" fill="#BF85BF"/><rect x="15" y="40" width="80" height="10" rx="5" fill="#56B3B4"/><rect x="45" y="140" width="100" height="10" rx="5" fill="#F7BA3E"/><rect x="15" y="140" width="20" height="10" rx="5" fill="#BF85BF"/><rect x="135" y="60" width="60" height="10" rx="5" fill="#EA5E5E"/><rect x="135" y="80" width="60" height="10" rx="5" fill="#F7BA3E"/><rect x="15" width="130" height="10" rx="5" fill="#56B3B4"/></g></svg>
        <svg id="stylelint" viewBox="0 0 412 395"><g transform="translate(31.478 29.499) scale(.84775)" fill="#cfd8dc" fill-rule="evenodd"><path d="M208.8 393.05c45.057-161.12 43.75-161.85 76.32-276.73l7.832 4.523c4.255 2.458 7.738.448 7.738-4.455V61.602c8.643-30.27 15.416-53.66 17.4-60.693h35.287l58.618 54.304-38.498 33.27 29.11 31.473-191.86 273.09c-.938 1.542-2.244 1.19-1.947 0zm20.96-347.28c1.733 0 3.148.958 3.148 2.147v28.077c0 1.186-1.415 2.15-3.147 2.15h-47.396c-1.742 0-3.153-.96-3.153-2.15V47.917c0-1.185 1.41-2.147 3.153-2.147h47.396z"/><path d="m288.26 14.688-52.14 30.1c.605.92.973 1.98.973 3.136v28.078c0 1.457-.565 2.77-1.496 3.83l52.663 30.402c3.59 2.073 6.535.377 6.535-3.764V18.456c0-4.145-2.944-5.836-6.535-3.768zM175.02 76V47.923c0-1.15.368-2.21.966-3.13l-52.14-30.105c-3.588-2.068-6.53-.376-6.53 3.768v88.013c0 4.14 2.938 5.84 6.53 3.76l52.66-30.405c-.926-1.06-1.487-2.37-1.487-3.827z"/><path d="M201.25 393.05h1.947c-45.05-161.12-43.753-161.85-76.32-276.73l-7.833 4.523c-4.253 2.458-7.737.448-7.737-4.455V61.602C102.662 31.332 95.892 7.942 93.902.909H58.619L.002 55.213l38.494 33.27-29.11 31.473z"/><circle cx="204.57" cy="122.54" r="14.231"/><circle cx="204.57" cy="207.16" r="14.231"/><circle cx="204.57" cy="291.78" r="14.23"/></g></svg>
        <svg id="docker" version="1.1" viewBox="0 0 24 24" xml:space="preserve"><path d="m21.81 10.25c-0.06-0.04-0.56-0.43-1.64-0.43-0.28 0-0.56 0.03-0.84 0.08-0.21-1.4-1.38-2.11-1.43-2.14l-0.29-0.17-0.18 0.27c-0.24 0.36-0.43 0.77-0.51 1.19-0.2 0.8-0.08 1.56 0.33 2.21-0.49 0.28-1.29 0.35-1.46 0.35h-13.17c-0.34 0-0.62 0.28-0.62 0.63 0 1.15 0.18 2.3 0.58 3.38 0.45 1.19 1.13 2.07 2 2.61 0.98 0.6 2.59 0.94 4.42 0.94 0.79 0 1.61-0.07 2.42-0.22 1.12-0.2 2.2-0.59 3.19-1.16 0.82-0.47 1.55-1.07 2.17-1.79 1.05-1.17 1.67-2.5 2.12-3.65h0.19c1.14 0 1.85-0.46 2.24-0.85 0.26-0.24 0.45-0.53 0.59-0.87l0.08-0.24-0.19-0.14m-17.96 0.99h1.76c0.08 0 0.16-0.07 0.16-0.16v-1.58c0-0.08-0.07-0.16-0.16-0.16h-1.76c-0.09 0-0.16 0.07-0.16 0.16v1.58c0.01 0.09 0.07 0.16 0.16 0.16m2.43 0h1.76c0.08 0 0.16-0.07 0.16-0.16v-1.58c0-0.08-0.07-0.16-0.16-0.16h-1.76c-0.09 0-0.16 0.07-0.16 0.16v1.58c0.01 0.09 0.07 0.16 0.16 0.16m2.47 0h1.75c0.1 0 0.17-0.07 0.17-0.16v-1.58c0-0.08-0.06-0.16-0.17-0.16h-1.75c-0.08 0-0.15 0.07-0.15 0.16v1.58c0 0.09 0.06 0.16 0.15 0.16m2.44 0h1.77c0.08 0 0.15-0.07 0.15-0.16v-1.58c0-0.08-0.06-0.16-0.15-0.16h-1.77c-0.08 0-0.15 0.07-0.15 0.16v1.58c0 0.09 0.07 0.16 0.15 0.16m-4.91-2.24h1.76c0.08 0 0.16-0.09 0.16-0.18v-1.57c0-0.09-0.07-0.16-0.16-0.16h-1.76c-0.09 0-0.16 0.06-0.16 0.16v1.57c0.01 0.09 0.07 0.18 0.16 0.18m2.47 0h1.75c0.1 0 0.17-0.09 0.17-0.18v-1.57c0-0.09-0.06-0.16-0.17-0.16h-1.75c-0.08 0-0.15 0.06-0.15 0.16v1.57c0 0.09 0.06 0.18 0.15 0.18m2.44 0h1.77c0.08 0 0.15-0.09 0.15-0.18v-1.57c0-0.09-0.07-0.16-0.15-0.16h-1.77c-0.08 0-0.15 0.06-0.15 0.16v1.57c0 0.09 0.07 0.18 0.15 0.18m0-2.28h1.77c0.08 0 0.15-0.07 0.15-0.16v-1.56c0-0.1-0.07-0.17-0.15-0.17h-1.77c-0.08 0-0.15 0.06-0.15 0.17v1.56c0 0.08 0.07 0.16 0.15 0.16m2.46 4.52h1.76c0.09 0 0.16-0.07 0.16-0.16v-1.58c0-0.08-0.07-0.16-0.16-0.16h-1.76c-0.08 0-0.15 0.07-0.15 0.16v1.58c0 0.09 0.07 0.16 0.15 0.16" fill="#0087c9"/></svg>
        <svg id="next" viewBox="0 0 32 32"> <path d="M16,2a14,14,0,1,0,5.81561,26.72345L12,14v9a1,1,0,0,1-1,1H9a1,1,0,0,1-1-1V9A1,1,0,0,1,9,8h2.43384a1,1,0,0,1,.85748.48553L23.782,27.63666A13.99919,13.99919,0,0,0,16,2Zm8,16H20V9a1,1,0,0,1,1-1h2a1,1,0,0,1,1,1Z" style="fill: #cfd8dc"/> </svg>
        <svg id="netlify" fill="none" version="1.1" viewBox="0 0 24 24"> <g transform="matrix(.17343 0 0 .17343 .90067 2.233)"> <path d="m59.675-0.0034858-0.73203 0.73203v26.33l0.73203 0.74329h8.7956l0.73203-0.74329v-26.33l-0.73203-0.73203h-8.7956zm-26.297 18.582-6.0251 6.0251v1.2163l9.2235 9.2235h6.3855l0.85591-0.85591v-6.3855l-9.2235-9.2235h-1.2163zm-32.648 32.603-0.73203 0.73203v8.8068l0.73203 0.73203h35.115l0.73203-0.73203v-8.8068l-0.73203-0.73203h-35.115zm91.436 0-0.73203 0.73203v8.8068l0.73203 0.73203h35.115l0.73202-0.73203v-8.8068l-0.73202-0.73203h-35.115zm-55.589 26.409-9.2235 9.2235v1.205l6.0251 6.0364h1.2163l9.2235-9.2235v-6.3968l-0.85591-0.84465h-6.3855zm23.098 7.2414-0.73203 0.74329v26.33l0.73203 0.73203h8.7956l0.73203-0.73203v-26.33l-0.73203-0.74329h-8.7956z" fill="#00bfa5"/> <path d="m80.459 74.605h-8.777l-0.7331-0.733v-20.546c0-3.6554-1.4364-6.4887-5.8447-6.5877-2.2686-0.0595-4.8641 0-7.6378 0.1089l-0.4161 0.426v26.589l-0.7331 0.733h-8.777l-0.7331-0.733v-35.098l0.7331-0.7331h19.753c7.6774 0 13.899 6.2212 13.899 13.899v21.943z" fill="#cfd8dc"/> </g> </svg>
        <svg id="gatsby" viewBox="0 0 28 28" xml:space="preserve"><path class="st0" d="M23.835 14h-6.259v1.788h4.292c-.626 2.682-2.593 4.918-5.186 5.812L6.4 11.318c1.073-3.13 4.113-5.365 7.6-5.365 2.682 0 5.096 1.342 6.616 3.398l1.341-1.162C20.17 5.775 17.308 4.165 14 4.165c-4.65 0-8.583 3.308-9.566 7.69l11.801 11.801c4.292-1.073 7.6-5.007 7.6-9.656zm-19.67.09c0 2.503.984 4.917 2.861 6.794s4.381 2.861 6.795 2.861z" fill="#fff"/><path d="M14 0C6.3 0 0 6.3 0 14s6.3 14 14 14 14-6.3 14-14S21.7 0 14 0zM6.2 21.8C4.1 19.7 3 16.9 3 14.2L13.9 25c-2.8-.1-5.6-1.1-7.7-3.2zm10.2 2.9L3.3 11.6C4.4 6.7 8.8 3 14 3c3.7 0 6.9 1.8 8.9 4.5l-1.5 1.3C19.7 6.5 17 5 14 5c-3.9 0-7.2 2.5-8.5 6L17 22.5c2.9-1 5.1-3.5 5.8-6.5H18v-2h7c0 5.2-3.7 9.6-8.6 10.7z" fill="#639" style="fill:#639" transform="translate(1.483 1.483) scale(.89407)"/></svg>
        <svg id="graphql" viewBox="0 0 32 32"> <rect x="6" y="20" width="20" height="2" style="fill: #ec407a"/> <circle cx="7" cy="21" r="3" style="fill: #ec407a"/> <circle cx="16" cy="27" r="3" style="fill: #ec407a"/> <circle cx="25" cy="21" r="3" style="fill: #ec407a"/> <rect x="6" y="10" width="20" height="2" style="fill: #ec407a"/> <circle cx="7" cy="11" r="3" style="fill: #ec407a"/> <circle cx="16" cy="5" r="3" style="fill: #ec407a"/> <circle cx="25" cy="11" r="3" style="fill: #ec407a"/> <rect x="6" y="12" width="2" height="10" style="fill: #ec407a"/> <rect x="24" y="10" width="2" height="12" style="fill: #ec407a"/> <rect x="3.57231" y="22.70513" width="13.54352" height="2" transform="translate(13.44481 -1.97206) rotate(30.46034)" style="fill: #ec407a"/> <rect x="13.57231" y="23.29487" width="13.54352" height="2" transform="translate(50.19633 34.92331) rotate(149.53966)" style="fill: #ec407a"/> <rect x="4.59753" y="6.57997" width="13.54352" height="2" transform="translate(-2.29249 7.3106) rotate(-32.56204)" style="fill: #ec407a"/> <rect x="13.85895" y="6.57997" width="13.54352" height="2" transform="translate(33.93883 25.07214) rotate(-147.43796)" style="fill: #ec407a"/> <rect x="4.59753" y="23.42003" width="13.54352" height="2" transform="translate(14.93032 -2.28049) rotate(32.56204)" style="fill: #ec407a"/> <rect x="13.85895" y="23.42003" width="13.54352" height="2" transform="translate(51.16163 33.89775) rotate(147.43796)" style="fill: #ec407a"/> <rect x="1.10394" y="12.6161" width="21.47138" height="2" transform="translate(-5.75891 17.59934) rotate(-61.7454)" style="fill: #ec407a"/> <rect x="9.42467" y="12.6161" width="21.47138" height="2" transform="translate(17.71031 37.82014) rotate(-118.2546)" style="fill: #ec407a"/> </svg>

        <svg id="azure" viewBox="0 0 32 32"> <g> <path d="M12.0012,4h7.10208l-7.372,23.18145A1.14018,1.14018,0,0,1,10.65791,28H5.1305A1.166,1.166,0,0,1,4,26.80145a1.26614,1.26614,0,0,1,.05973-.38535L10.92914,4.81719A1.14,1.14,0,0,1,12.00249,4Z" style="fill: #01579b"/> <path d="M22.32075,20H11.06026a.537.537,0,0,0-.52273.55026.56885.56885,0,0,0,.16666.40745L17.94,27.67394a1.10052,1.10052,0,0,0,.77513.32469h6.3758Z" style="fill: #1976d2"/> <path d="M21.07129,4.81583a1.13735,1.13735,0,0,0-1.07077-.81447H12.086a1.13856,1.13856,0,0,1,1.07206.81447l6.86813,21.5989a1.21888,1.21888,0,0,1-.71076,1.52105,1.07182,1.07182,0,0,1-.3613.06285h7.91448A1.16587,1.16587,0,0,0,28,26.801a1.26615,1.26615,0,0,0-.05929-.38489L21.07129,4.81719Z" style="fill: #29b6f6"/> </g> </svg>
        <svg id="coffee" viewBox="0 0 32 32"> <g> <rect x="4" y="26" width="24" height="2" style="fill: #42a5f5"/> <path d="M28,4H7A1,1,0,0,0,6,5V18a4,4,0,0,0,4,4H20a4,4,0,0,0,4-4V14h4a2,2,0,0,0,2-2V6A2,2,0,0,0,28,4Zm0,8H24V6h4Z" style="fill: #42a5f5"/> </g> </svg>
    </defs>
</svg>